#!OML:ASF E:/inclinewalkrobotboard/Project1/Captureday1/Session1/subject1.ASF
:FULLY-SPECIFIED
:DEGREES
1
root 0 0 0 19.89448712925671 -7.326941755158491 -6.400087547743079
lowerback -3.6024596367427293 0.4073403166911614 -1.1755101080322856
upperback -7.349018727343647 0.6752204914948733 2.8760898688552126
thorax -5.751282206272807 0.4938826373737757 3.8359739072949477
lowerneck -11.330369863662547 -2.215231867508325 -1.3610109375270412
upperneck 25.971962172081422 -3.524637802715171 1.9765956805229803
head 10.518551902501464 -1.546622957035248 0.4382362491280479
rclavicle 7.264623743048122E-16 -1.381120914043305E-15
rhumerus 4.867528238135522 -22.013771344571683 -54.285790629708416
rradius 28.77488876657775
rwrist 19.57440056504836
rhand -3.6065346423156948 10.972325614037723
rfingers 7.125019999999973
rthumb 22.00843452260255 -16.75798589569323
lclavicle -1.0088188391401798E-16 -1.2025586507986572E-15
lhumerus -10.084356527353354 6.79793575019256 46.44974379935687
lradius 32.780161419111906
lwrist -11.952146887090068
lhand -3.323755811366766 24.197668494075305
lfingers 7.1250199999999735
lthumb 22.22553480181672 51.736689212711354
rfemur 72.69756161659267 -97.247271780656 -71.47405404042189
rtibia 40.040133864482634
rfoot -19.89587248521242 -19.696532092410628
rtoes 23.341238070473402
lfemur -48.84714858025375 9.387368551907915 -28.91348698999099
ltibia 45.51923051301315
lfoot -22.146720370054968 16.749721603269535
ltoes 11.462938186505387
2
root 0 0 0 21.45745734899616 -9.949275523616771 -7.222313232528288
lowerback -3.7224043388147 0.6465745119796241 -1.0813796776325237
upperback -7.653524529089683 0.9584648913150002 2.653059954573969
thorax -6.039621746454803 0.6145390236651906 3.5676149940107518
lowerneck -11.423307538789798 -1.6395354341045123 -0.966412309307906
upperneck 25.502595832255366 -2.8392762950774593 2.278622008244968
head 10.356080903770303 -1.1775191807887568 0.5362015506080169
rclavicle 7.259789818767807E-16 -1.379316682220987E-15
rhumerus 4.9128331202928734 -22.012399502721685 -54.276066284368774
rradius 28.769963269940288
rwrist 19.59428250972867
rhand -3.5821227850248833 10.950885025809482
rfingers 7.125019999999973
rthumb 22.03306257704427 -16.776467507246867
lclavicle -8.357375418572986E-17 -1.2052814362588542E-15
lhumerus -10.113810835974904 6.761006426989805 46.53677470801952
lradius 32.811152200541265
lwrist -11.894220752807616
lhand -3.3227717930805643 24.183217985539216
lfingers 7.125019999999973
lthumb 22.22355321498376 51.72051698596835
rfemur 72.56755915183143 -97.07881980112404 -71.29536616165596
rtibia 40.0418420726491
rfoot -19.85958845126091 -19.67857621381086
rtoes 23.303642592528764
lfemur -48.94653822972808 9.421380806009704 -28.94564173457686
ltibia 45.553889630680374
lfoot -22.133426983390326 16.790729924355396
ltoes 11.484441341464116
3
root 0 0 0 23.684415356947078 -13.622579591946483 -8.349852993823562
lowerback -3.9395345016314227 0.9662702932752829 -0.9778101380149782
upperback -8.125723643470794 1.3318627466857362 2.354426198605887
thorax -6.461697845663051 0.7767331693130428 3.2203403541122615
lowerneck -11.509110717550174 -0.8312797973675349 -0.4200388267334849
upperneck 24.854511222636024 -1.8759410387822995 2.7207682437136875
head 10.126768544705218 -0.6585188666947368 0.6795032797980111
rclavicle 7.212353153521016E-16 -1.38337936504773E-15
rhumerus 4.965451670274449 -22.00274707605748 -54.27077093760148
rradius 28.764962196214878
rwrist 19.61127308238771
rhand -3.551647632347966 10.92557843371798
rfingers 7.1250199999999735
rthumb 22.06311872149336 -16.798369128676192
lclavicle -5.767297534958094E-17 -1.2069466653888045E-15
lhumerus -10.126680325066278 6.705311998253698 46.637380559619274
lradius 32.867963576059786
lwrist -11.811953822352432
lhand -3.2958973551068276 24.162162754751638
lfingers 7.125019999999973
lthumb 22.246147304773036 51.69275266934165
rfemur 72.47820762825262 -96.96999658832533 -71.17148053704472
rtibia 40.04316481505387
rfoot -19.835392931190103 -19.66934134588979
rtoes 23.280749954042996
lfemur -49.07989575459753 9.465320839885619 -28.985408061143183
ltibia 45.594174473316016
lfoot -22.131384458186204 16.85079061328964
ltoes 11.519686043783077
4
root 0 0 0 26.68083199626603 -18.508612863161236 -9.820547131116763
lowerback -4.2732643551354625 1.3746744476719095 -0.8724713392973343
upperback -8.80307710660978 1.8018266495274686 1.9717552891119166
thorax -7.04774925943268 0.9841846119205948 2.7904116117433184
lowerneck -11.57513051560844 0.2489326794881075 0.30036702149096073
upperneck 23.98863188010856 -0.5858018742555022 3.331133959389735
head 9.814997644350377 0.036239527380648284 0.8774845271179659
rclavicle 7.123467122380948E-16 -1.3877509184090176E-15
rhumerus 5.053853965687683 -21.988265866030172 -54.26580064810856
rradius 28.749609701845884
rwrist 19.652922090295245
rhand -3.503037632232191 10.883095500676113
rfingers 7.1250199999999735
rthumb 22.111269583214426 -16.834414477606888
lclavicle -1.0042667377766397E-17 -1.2072916932182094E-15
lhumerus -10.112518160368522 6.617773229324422 46.760116337648725
lradius 32.9704054794459
lwrist -11.689962357148366
lhand -3.2204161857726366 24.12949000131521
lfingers 7.1250199999999735
lthumb 22.31509411665983 51.64443146977649
rfemur 72.42797835279387 -96.90773551735452 -71.09323514235815
rtibia 40.0444635387466
rfoot -19.814576524210377 -19.667338601687284
rtoes 23.265991654957283
lfemur -49.26308142384787 9.523725561053077 -29.044834664324956
ltibia 45.65080358084354
lfoot -22.126649155960738 16.93410854821554
ltoes 11.565276006628398
5
root 0 0 0 32.95299089728389 -28.5359337485045 -12.79045909854376
lowerback -5.067691763238389 2.172943139938491 -0.7294731281284346
upperback -10.322008754576336 2.703806060596717 1.2249316588410055
thorax -8.323383461475858 1.3897611621524562 1.9908886099624101
lowerneck -11.590441936360596 2.483707679635301 1.7617664990145951
upperneck 22.172467681475535 2.089091956505433 4.643154787548376
head 9.147248334682608 1.475215154636913 1.3032846493083023
rclavicle 6.878754721922288E-16 -1.3932754578954558E-15
rhumerus 5.408449846501867 -21.96968729613626 -54.184688334604104
rradius 28.674118456457766
rwrist 19.855204176456937
rhand -3.3051113072343092 10.704962259927983
rfingers 7.125019999999976
rthumb 22.30545836819706 -16.98293725584384
lclavicle 1.0155959629676966E-16 -1.2083004087503773E-15
lhumerus -9.972039241370297 6.4575489854925365 46.86948226210794
lradius 33.20850677988896
lwrist -11.490543199880491
lhand -2.971540177821275 24.065548868048406
lfingers 7.125019999999976
lthumb 22.55265209702958 51.53487678463431
rfemur 73.05443256790548 -97.60150638188406 -71.75364845176294
rtibia 40.04086325337213
rfoot -19.821856706871344 -19.7602188955969
rtoes 23.325464484744
lfemur -49.831618866761744 9.709201793094984 -29.21001856913498
ltibia 45.82498515899381
lfoot -22.173054198584826 17.200876366580992
ltoes 11.73880317538507
